<svg xmlns="http://www.w3.org/2000/svg" viewBox="0 0 892.99 331.13"><defs><style>.a{font-size:100px;font-family:LMSans8-Regular, Latin Modern Sans;}.a,.d{fill:#282826;}.b{letter-spacing:-0.09em;}.c{letter-spacing:0em;}</style></defs><title>l-althueser_logo</title><text class="a" transform="translate(361.3 132.01)">LUTZ<tspan x="0" y="120">A</tspan><tspan class="b" x="70.8" y="120">L</tspan><tspan class="c" x="119.7" y="120">THÜSER</tspan></text><polygon class="d" points="81.79 272.97 81.68 273.29 62.76 331.13 118.98 331.13 136.23 273.04 136.25 272.97 81.79 272.97"/><path class="d" d="M212.19,66.84H154L103.41,221.65h52.7l0-.07q3.17-10.26,5.62-18.83,3.08-10.78,6.93-25.41,1.53-6.54,3.66-14.63t3.85-15.59q1.73-7.51,3.08-13.28t2.12-8.09l10.78,47.36q1.53,6.93,3.85,15.4t4.43,16.36q2.11,7.9,3.85,13.86t2.5,8.28H161l-13.09,44.66h72l18.87,63.53h57.76Z" transform="translate(-3.5 -4.08)"/><path class="d" d="M141.34,271.68H86.95L101.51,227h52.92Zm-54.4,0H3.5V4.08H58.56V227h43Z" transform="translate(-3.5 -4.08)"/></svg>