<?xml version="1.0" encoding="utf-8"?>
<!-- Generator: Adobe Illustrator 16.0.3, SVG Export Plug-In . SVG Version: 6.00 Build 0)  -->
<!DOCTYPE svg PUBLIC "-//W3C//DTD SVG 1.1//EN" "http://www.w3.org/Graphics/SVG/1.1/DTD/svg11.dtd">
<svg version="1.1" id="Ebene_1" xmlns="http://www.w3.org/2000/svg" xmlns:xlink="http://www.w3.org/1999/xlink" x="0px" y="0px"
	 width="898px" height="897px" viewBox="0 0 898 897" enable-background="new 0 0 898 897" xml:space="preserve">
<g display="none">
	<g display="inline">
		<rect x="-28" y="-85.5" fill-rule="evenodd" clip-rule="evenodd" fill="#FFFFFF" width="1000" height="1000"/>
		<ellipse fill-rule="evenodd" clip-rule="evenodd" fill="#FFFFFF" cx="472" cy="414.5" rx="499.723" ry="500.277"/>
		<ellipse fill-rule="evenodd" clip-rule="evenodd" fill="#FCFCFC" cx="472" cy="414.5" rx="494.961" ry="495.516"/>
		<ellipse fill-rule="evenodd" clip-rule="evenodd" fill="#F9F9F9" cx="472" cy="414.5" rx="490.203" ry="490.75"/>
		<ellipse fill-rule="evenodd" clip-rule="evenodd" fill="#F6F6F6" cx="472" cy="414.5" rx="485.445" ry="485.984"/>
		<ellipse fill-rule="evenodd" clip-rule="evenodd" fill="#F3F3F3" cx="472" cy="414.5" rx="480.684" ry="481.219"/>
		<ellipse fill-rule="evenodd" clip-rule="evenodd" fill="#F0F0F0" cx="472" cy="414.5" rx="475.926" ry="476.457"/>
		<ellipse fill-rule="evenodd" clip-rule="evenodd" fill="#EEEEEE" cx="472" cy="414.5" rx="471.164" ry="471.691"/>
		<ellipse fill-rule="evenodd" clip-rule="evenodd" fill="#EBEBEB" cx="472" cy="414.5" rx="466.406" ry="466.926"/>
		<ellipse fill-rule="evenodd" clip-rule="evenodd" fill="#E8E8E8" cx="472" cy="414.5" rx="461.648" ry="462.164"/>
		<ellipse fill-rule="evenodd" clip-rule="evenodd" fill="#E6E6E6" cx="472.002" cy="414.5" rx="456.889" ry="457.398"/>
		<ellipse fill-rule="evenodd" clip-rule="evenodd" fill="#E3E3E3" cx="472" cy="414.5" rx="452.129" ry="452.633"/>
		<ellipse fill-rule="evenodd" clip-rule="evenodd" fill="#E1E1E1" cx="472" cy="414.5" rx="447.371" ry="447.867"/>
		<ellipse fill-rule="evenodd" clip-rule="evenodd" fill="#DEDEDE" cx="472" cy="414.5" rx="442.609" ry="443.105"/>
		<ellipse fill-rule="evenodd" clip-rule="evenodd" fill="#DCDCDC" cx="472" cy="414.5" rx="437.852" ry="438.34"/>
		<ellipse fill-rule="evenodd" clip-rule="evenodd" fill="#DADADA" cx="472" cy="414.5" rx="433.094" ry="433.574"/>
		<ellipse fill-rule="evenodd" clip-rule="evenodd" fill="#D7D7D7" cx="472" cy="414.5" rx="428.332" ry="428.813"/>
		<ellipse fill-rule="evenodd" clip-rule="evenodd" fill="#D5D5D5" cx="472" cy="414.5" rx="423.574" ry="424.047"/>
		<ellipse fill-rule="evenodd" clip-rule="evenodd" fill="#D3D3D3" cx="472" cy="414.5" rx="418.813" ry="419.281"/>
		<ellipse fill-rule="evenodd" clip-rule="evenodd" fill="#D1D1D1" cx="472" cy="414.5" rx="414.055" ry="414.516"/>
		<ellipse fill-rule="evenodd" clip-rule="evenodd" fill="#CFCFCF" cx="472" cy="414.5" rx="409.297" ry="409.75"/>
		<ellipse fill-rule="evenodd" clip-rule="evenodd" fill="#CDCDCD" cx="472" cy="414.5" rx="404.535" ry="404.988"/>
		<ellipse fill-rule="evenodd" clip-rule="evenodd" fill="#CBCBCB" cx="472" cy="414.5" rx="399.777" ry="400.223"/>
		<ellipse fill-rule="evenodd" clip-rule="evenodd" fill="#C9C9C9" cx="471.998" cy="414.5" rx="395.018" ry="395.457"/>
		<ellipse fill-rule="evenodd" clip-rule="evenodd" fill="#C7C7C7" cx="472" cy="414.5" rx="390.258" ry="390.695"/>
		<ellipse fill-rule="evenodd" clip-rule="evenodd" fill="#C5C5C5" cx="472" cy="414.5" rx="385.5" ry="385.93"/>
		<ellipse fill-rule="evenodd" clip-rule="evenodd" fill="#C4C4C4" cx="472" cy="414.5" rx="380.742" ry="381.164"/>
		<ellipse fill-rule="evenodd" clip-rule="evenodd" fill="#C2C2C2" cx="472" cy="414.5" rx="375.98" ry="376.398"/>
		<ellipse fill-rule="evenodd" clip-rule="evenodd" fill="#C0C0C0" cx="472" cy="414.5" rx="371.223" ry="371.637"/>
		<ellipse fill-rule="evenodd" clip-rule="evenodd" fill="#BEBEBE" cx="472" cy="414.5" rx="366.461" ry="366.871"/>
		<ellipse fill-rule="evenodd" clip-rule="evenodd" fill="#BDBDBD" cx="472" cy="414.5" rx="361.703" ry="362.105"/>
		<ellipse fill-rule="evenodd" clip-rule="evenodd" fill="#BBBBBB" cx="472" cy="414.5" rx="356.945" ry="357.344"/>
		<ellipse fill-rule="evenodd" clip-rule="evenodd" fill="#BABABA" cx="472" cy="414.5" rx="352.184" ry="352.578"/>
		<ellipse fill-rule="evenodd" clip-rule="evenodd" fill="#B8B8B8" cx="472" cy="414.5" rx="347.426" ry="347.813"/>
		<ellipse fill-rule="evenodd" clip-rule="evenodd" fill="#B7B7B7" cx="471.998" cy="414.5" rx="342.666" ry="343.047"/>
		<ellipse fill-rule="evenodd" clip-rule="evenodd" fill="#B5B5B5" cx="472" cy="414.5" rx="337.906" ry="338.285"/>
		<ellipse fill-rule="evenodd" clip-rule="evenodd" fill="#B4B4B4" cx="472" cy="414.5" rx="333.148" ry="333.52"/>
		<ellipse fill-rule="evenodd" clip-rule="evenodd" fill="#B3B3B3" cx="472" cy="414.5" rx="328.391" ry="328.754"/>
		<ellipse fill-rule="evenodd" clip-rule="evenodd" fill="#B2B2B2" cx="472" cy="414.5" rx="323.629" ry="323.992"/>
		<ellipse fill-rule="evenodd" clip-rule="evenodd" fill="#B0B0B0" cx="472" cy="414.5" rx="318.871" ry="319.227"/>
		<ellipse fill-rule="evenodd" clip-rule="evenodd" fill="#AFAFAF" cx="472" cy="414.5" rx="314.109" ry="314.461"/>
		<ellipse fill-rule="evenodd" clip-rule="evenodd" fill="#AEAEAE" cx="472" cy="414.5" rx="309.352" ry="309.695"/>
		<ellipse fill-rule="evenodd" clip-rule="evenodd" fill="#ADADAD" cx="472" cy="414.5" rx="304.594" ry="304.93"/>
		<ellipse fill-rule="evenodd" clip-rule="evenodd" fill="#ACACAC" cx="472" cy="414.5" rx="299.832" ry="300.168"/>
		<ellipse fill-rule="evenodd" clip-rule="evenodd" fill="#ABABAB" cx="472" cy="414.5" rx="295.074" ry="295.402"/>
		<ellipse fill-rule="evenodd" clip-rule="evenodd" fill="#AAAAAA" cx="472" cy="414.5" rx="290.313" ry="290.637"/>
		<ellipse fill-rule="evenodd" clip-rule="evenodd" fill="#A9A9A9" cx="472" cy="414.5" rx="285.555" ry="285.875"/>
		<ellipse fill-rule="evenodd" clip-rule="evenodd" fill="#A8A8A8" cx="472" cy="414.5" rx="280.797" ry="281.109"/>
		<ellipse fill-rule="evenodd" clip-rule="evenodd" fill="#A7A7A7" cx="472.002" cy="414.5" rx="276.037" ry="276.344"/>
		<ellipse fill-rule="evenodd" clip-rule="evenodd" fill="#A6A6A6" cx="472" cy="414.5" rx="271.277" ry="271.578"/>
		<ellipse fill-rule="evenodd" clip-rule="evenodd" fill="#A5A5A5" cx="472" cy="414.5" rx="266.52" ry="266.816"/>
		<ellipse fill-rule="evenodd" clip-rule="evenodd" fill="#A4A4A4" cx="472" cy="414.5" rx="261.758" ry="262.051"/>
		<ellipse fill-rule="evenodd" clip-rule="evenodd" fill="#A4A4A4" cx="472" cy="414.5" rx="257" ry="257.285"/>
		<ellipse fill-rule="evenodd" clip-rule="evenodd" fill="#A3A3A3" cx="472" cy="414.5" rx="252.242" ry="252.523"/>
		<ellipse fill-rule="evenodd" clip-rule="evenodd" fill="#A2A2A2" cx="472" cy="414.5" rx="247.48" ry="247.758"/>
		<ellipse fill-rule="evenodd" clip-rule="evenodd" fill="#A1A1A1" cx="472" cy="414.5" rx="242.723" ry="242.992"/>
		<ellipse fill-rule="evenodd" clip-rule="evenodd" fill="#A1A1A1" cx="472" cy="414.5" rx="237.961" ry="238.227"/>
		<ellipse fill-rule="evenodd" clip-rule="evenodd" fill="#A0A0A0" cx="472" cy="414.5" rx="233.203" ry="233.465"/>
		<path fill-rule="evenodd" clip-rule="evenodd" fill="#9F9F9F" d="M700.445,414.5c0,126.305-102.281,228.699-228.445,228.699
			S243.555,540.805,243.555,414.5c0-126.309,102.281-228.699,228.445-228.699S700.445,288.191,700.445,414.5z"/>
		<ellipse fill-rule="evenodd" clip-rule="evenodd" fill="#9F9F9F" cx="472" cy="414.5" rx="223.684" ry="223.934"/>
		<ellipse fill-rule="evenodd" clip-rule="evenodd" fill="#9E9E9E" cx="472" cy="414.5" rx="218.926" ry="219.172"/>
		<ellipse fill-rule="evenodd" clip-rule="evenodd" fill="#9E9E9E" cx="471.998" cy="414.5" rx="214.166" ry="214.406"/>
		<ellipse fill-rule="evenodd" clip-rule="evenodd" fill="#9D9D9D" cx="472" cy="414.5" rx="209.406" ry="209.641"/>
		<ellipse fill-rule="evenodd" clip-rule="evenodd" fill="#9D9D9D" cx="472" cy="414.5" rx="204.648" ry="204.875"/>
		<ellipse fill-rule="evenodd" clip-rule="evenodd" fill="#9C9C9C" cx="472" cy="414.5" rx="199.891" ry="200.109"/>
		<ellipse fill-rule="evenodd" clip-rule="evenodd" fill="#9C9C9C" cx="472" cy="414.5" rx="195.129" ry="195.348"/>
		<ellipse fill-rule="evenodd" clip-rule="evenodd" fill="#9B9B9B" cx="472" cy="414.5" rx="190.371" ry="190.582"/>
		<ellipse fill-rule="evenodd" clip-rule="evenodd" fill="#9B9B9B" cx="472" cy="414.5" rx="185.609" ry="185.816"/>
		<ellipse fill-rule="evenodd" clip-rule="evenodd" fill="#9B9B9B" cx="472" cy="414.5" rx="180.852" ry="181.055"/>
		<ellipse fill-rule="evenodd" clip-rule="evenodd" fill="#9A9A9A" cx="472" cy="414.5" rx="176.094" ry="176.289"/>
		<ellipse fill-rule="evenodd" clip-rule="evenodd" fill="#9A9A9A" cx="472" cy="414.5" rx="171.332" ry="171.523"/>
		<ellipse fill-rule="evenodd" clip-rule="evenodd" fill="#9A9A9A" cx="472" cy="414.5" rx="166.574" ry="166.758"/>
		<ellipse fill-rule="evenodd" clip-rule="evenodd" fill="#999999" cx="472" cy="414.5" rx="161.813" ry="161.996"/>
		<ellipse fill-rule="evenodd" clip-rule="evenodd" fill="#999999" cx="472" cy="414.5" rx="157.055" ry="157.23"/>
		<ellipse fill-rule="evenodd" clip-rule="evenodd" fill="#999999" cx="472" cy="414.5" rx="152.297" ry="152.465"/>
		<ellipse fill-rule="evenodd" clip-rule="evenodd" fill="#989898" cx="472" cy="414.5" rx="147.539" ry="147.703"/>
		<ellipse fill-rule="evenodd" clip-rule="evenodd" fill="#989898" cx="472" cy="414.5" rx="142.777" ry="142.938"/>
		<ellipse fill-rule="evenodd" clip-rule="evenodd" fill="#989898" cx="472" cy="414.5" rx="138.02" ry="138.172"/>
		<ellipse fill-rule="evenodd" clip-rule="evenodd" fill="#989898" cx="472" cy="414.5" rx="133.258" ry="133.406"/>
		<ellipse fill-rule="evenodd" clip-rule="evenodd" fill="#989898" cx="472" cy="414.5" rx="128.5" ry="128.645"/>
		<ellipse fill-rule="evenodd" clip-rule="evenodd" fill="#979797" cx="472" cy="414.5" rx="123.742" ry="123.879"/>
		<ellipse fill-rule="evenodd" clip-rule="evenodd" fill="#979797" cx="472" cy="414.5" rx="118.98" ry="119.113"/>
		<ellipse fill-rule="evenodd" clip-rule="evenodd" fill="#979797" cx="472" cy="414.5" rx="114.223" ry="114.352"/>
		<ellipse fill-rule="evenodd" clip-rule="evenodd" fill="#979797" cx="472" cy="414.5" rx="109.461" ry="109.586"/>
		<ellipse fill-rule="evenodd" clip-rule="evenodd" fill="#979797" cx="472" cy="414.5" rx="104.703" ry="104.82"/>
		<path fill-rule="evenodd" clip-rule="evenodd" fill="#979797" d="M571.945,414.5c0,55.258-44.75,100.055-99.945,100.055
			c-55.199,0-99.945-44.797-99.945-100.055S416.801,314.445,472,314.445C527.195,314.445,571.945,359.242,571.945,414.5z"/>
		<ellipse fill-rule="evenodd" clip-rule="evenodd" fill="#979797" cx="472.002" cy="414.5" rx="95.186" ry="95.289"/>
		<ellipse fill-rule="evenodd" clip-rule="evenodd" fill="#979797" cx="472" cy="414.5" rx="90.426" ry="90.527"/>
		<ellipse fill-rule="evenodd" clip-rule="evenodd" fill="#969696" cx="472" cy="414.5" rx="85.668" ry="85.762"/>
		<ellipse fill-rule="evenodd" clip-rule="evenodd" fill="#969696" cx="472" cy="414.5" rx="80.906" ry="80.996"/>
		<ellipse fill-rule="evenodd" clip-rule="evenodd" fill="#969696" cx="472" cy="414.5" rx="76.148" ry="76.234"/>
		<ellipse fill-rule="evenodd" clip-rule="evenodd" fill="#969696" cx="472" cy="414.5" rx="71.391" ry="71.469"/>
		<ellipse fill-rule="evenodd" clip-rule="evenodd" fill="#969696" cx="472" cy="414.5" rx="66.629" ry="66.703"/>
		<ellipse fill-rule="evenodd" clip-rule="evenodd" fill="#969696" cx="472" cy="414.5" rx="61.871" ry="61.938"/>
		<ellipse fill-rule="evenodd" clip-rule="evenodd" fill="#969696" cx="472" cy="414.5" rx="57.109" ry="57.176"/>
		<ellipse fill-rule="evenodd" clip-rule="evenodd" fill="#969696" cx="472" cy="414.5" rx="52.352" ry="52.41"/>
		<ellipse fill-rule="evenodd" clip-rule="evenodd" fill="#969696" cx="472" cy="414.5" rx="47.594" ry="47.645"/>
		<ellipse fill-rule="evenodd" clip-rule="evenodd" fill="#969696" cx="472" cy="414.5" rx="42.832" ry="42.883"/>
		<ellipse fill-rule="evenodd" clip-rule="evenodd" fill="#969696" cx="472" cy="414.5" rx="38.074" ry="38.117"/>
		<ellipse fill-rule="evenodd" clip-rule="evenodd" fill="#969696" cx="471.998" cy="414.5" rx="33.314" ry="33.352"/>
		<ellipse fill-rule="evenodd" clip-rule="evenodd" fill="#969696" cx="472" cy="414.5" rx="28.555" ry="28.586"/>
		<ellipse fill-rule="evenodd" clip-rule="evenodd" fill="#969696" cx="472" cy="414.5" rx="23.797" ry="23.824"/>
		<ellipse fill-rule="evenodd" clip-rule="evenodd" fill="#969696" cx="472" cy="414.5" rx="19.039" ry="19.059"/>
		<ellipse fill-rule="evenodd" clip-rule="evenodd" fill="#969696" cx="472" cy="414.5" rx="14.277" ry="14.293"/>
		<ellipse fill-rule="evenodd" clip-rule="evenodd" fill="#969696" cx="472" cy="414.5" rx="9.52" ry="9.531"/>
		<ellipse fill-rule="evenodd" clip-rule="evenodd" fill="#969696" cx="472" cy="414.5" rx="4.758" ry="4.766"/>
	</g>
</g>
<rect x="1.037" fill-rule="evenodd" clip-rule="evenodd" fill="#C0C0C0" width="897.772" height="898"/>
<g>
	<path fill-rule="evenodd" clip-rule="evenodd" d="M462,1c2,0,4,0,6,0c11.848,4.078,23.863,7.749,35.43,12.511
		c3.005,1.237,4.909,5.715,6.749,9.021c1.238,2.226,1.475,5.008,2.159,7.541c0.756-2.807,1.623-5.59,2.236-8.428
		c0.606-2.808,0.957-5.671,1.42-8.51c8.969,4.738,17.953,9.449,26.9,14.228c3.264,1.743,6.384,3.762,9.673,5.452
		c9.901,5.091,19.782,10.232,29.817,15.046c4.899,2.351,10.932,2.995,15.026,6.221c7.076,5.572,12.995,12.603,19.506,18.911
		c1.525,1.478,3.478,2.515,5.233,3.755c-1.542,0.02-3.109-0.112-4.612,0.141c-0.548,0.092-0.943,1.097-1.408,1.685
		c1.147,0.843,2.262,1.735,3.448,2.519c5.982,3.95,12.545,7.276,17.68,12.12c1.856,1.75-1.229,8.546,0.626,10.533
		c4.087,4.38,11.558,6.057,14.691,10.792c13.53,20.45,26.479,41.332,38.587,62.653c4.241,7.469,5.483,16.646,7.934,25.089
		c0.055,0.187-1.792,1.145-2.834,1.381c-2.059,0.465-5.698,0.212-5.964,1.085c-0.644,2.109-0.358,5.025,0.682,7.03
		c3.99,7.686,9.328,14.795,12.4,22.796c2.306,6.006,5.049,15.595,2.149,19.163c-9.689,11.927-3.982,22.957-2.753,35.118
		c1.448,14.337,1.372,29.693-2.378,43.424c-3.187,11.668-0.715,22.874,9.998,28.808c6.766,3.746,15.794,12.138,15.632,18.228
		c-0.956,35.811-4.151,71.571-7.071,107.31c-0.368,4.508-6.311,10.142-4.941,12.937c6.059,12.367,4.945,24.789-5.151,31.668
		c-8.947,6.097-21.87,6.314-32.991,9.3c-2.949,0.791-8.02,1.873-8.248,3.4c-5.573,37.25-11.438,74.499-15.106,111.958
		c-0.772,7.889,6.317,23.492,10.711,23.84c34.447,2.729,35.64,3.396,49.009,34.535c3.157,7.354,2.367,20.911,18.775,18.836
		c18.729-2.369,37.626-5.028,54.802,9.988c22.134,19.352,45.874,37.136,70.377,53.403c14.266,9.47,21.507,29.796,42.808,28.515
		c0,22.815,0.086,45.632-0.19,68.444c-0.019,1.535-2.768,4.366-4.249,4.367C708.041,898.011,521.521,898,335,898
		c-0.511-3.964-1.461-7.929-1.457-11.892c0.015-17.722,0.095-35.45,0.709-53.156c0.095-2.714,3.11-5.325,4.774-7.984
		c1.561,2.499,3.738,4.808,4.582,7.529c5.069,16.353,9.813,32.807,14.734,49.206c0.42,1.4,1.333,2.653,2.018,3.975
		c0.513-0.646,1.497-1.314,1.469-1.936c-0.675-14.693,0.804-29.995-2.96-43.871c-2.862-10.554-13.813-18.633-18.694-28.978
		c-10.204-21.626-16.77-45.171-28.569-65.787c-12.486-21.813-30.52-40.388-43.886-61.779
		c-11.659-18.662-21.006-38.931-29.623-59.233c-2.589-6.1-1.045-15.468,1.82-21.908c2.478-5.571,8.999-9.975,14.652-13.356
		c8.839-5.287,18.252-9.776,27.808-13.648c6.991-2.833,15.815-2.381,21.701-6.456c14.992-10.383,28.704-22.605,43.307-33.588
		c0.873-0.657,7.405,3.181,7.353,4.8c-0.439,13.576-2.103,27.108-2.743,40.685c-0.266,5.629,0.971,11.345,1.687,17
		c1.072,8.472-0.202,18.781,4.264,24.774c3.322,4.459,14.527,5.465,21.582,4.261c19.925-3.402,39.732-8,59.153-13.624
		c9.271-2.685,17.606-8.68,26.151-13.551c0.434-0.247-1.193-5.935-1.812-5.925c-8.49,0.134-17.485-0.757-25.318,1.793
		c-8.923,2.904-14.501,4.111-15.404-7.452c-0.123-1.583-0.511-3.98-1.553-4.53c-13.752-7.255-27.642-14.247-41.499-21.3
		c-1.65-0.84-3.313-1.651-4.971-2.477c1.013-1.583,1.702-4.112,3.093-4.588c6.717-2.295,13.597-4.132,20.466-5.956
		c23.944-6.358,46.992-13.637,49.044-44.283c0.078-1.172,1.477-2.198,1.961-3.412c2.198-5.5,6.952-11.584,5.958-16.477
		c-4.359-21.453-11.335-42.383-15.489-63.865c-2.778-14.365-15.542-29.729-28.892-25.522c-8.958,2.824-18.715,14.092-21.518,23.539
		c-11.276,38.005-34.646,62.407-77.663,60.5c-4.508-0.2-8.818-4.815-13.221-7.383c2.133-3.008,4.246-6.031,6.407-9.02
		c1.282-1.772,2.803-3.393,3.92-5.258c1.144-1.908,1.699-4.185,2.929-6.021c1.254-1.873,3.014-3.408,4.553-5.091
		c-2.097-0.39-4.253-1.305-6.279-1.075c-8.042,0.91-16.069,2.026-24.049,3.379c-3.699,0.627-7.59,3.415-10.848,2.708
		c-8.503-1.846-16.276,18.784-25.129,0.606c-1.62-3.327-5.586-5.522-8.502-8.204c-1.809-1.662-5.482-3.709-5.207-4.801
		c1.097-4.366,3.125-8.588,5.353-12.558c2.561-4.564,5.929-8.684,8.387-13.294c0.485-0.91-1.568-3.174-2.45-4.813
		c2.545-0.692,5.057-1.593,7.646-2.019c2.704-0.446,5.484-0.436,8.231-0.625c-0.093-0.878,0.101-2.343-0.321-2.55
		c-10.957-5.368,4.184-9.225,0.941-14.467c-0.585-0.946,1.997-5.567,3.157-5.583c5.335-0.073,10.679,0.95,16.032,1.434
		c1.504,0.135,3.431,0.292,4.498-0.48c1.923-1.393,3.09-4.681,5.014-5.087c15.854-3.344,31.772-6.422,47.745-9.156
		c15.692-2.687,32.342,1.886,46.426-11.587c8.227-7.869,20.928-11.368,32.017-15.837c7.966-3.211,17.066-3.766,24.79-7.37
		c7.085-3.307,13.224-8.842,19.386-13.876c9.138-7.465,17.532-15.925,27.178-22.613c2.084-1.445,8.024,3.386,12.401,4.271
		c2.764,0.559,5.923-0.839,8.905-1.358c-1.888-0.846-4.333-1.23-5.515-2.66c-1.349-1.631-1.572-4.192-2.284-6.35
		c8.363-2.167,16.715-4.387,25.11-6.424c0.869-0.211,2.001,0.657,3.011,1.024c-0.024-1.232,0.399-2.726-0.142-3.657
		c-4.731-8.141-9.797-16.093-14.271-24.367c-0.528-0.978,1.552-3.962,3.063-5.281c1.553-1.354,5.38-1.541,5.59-2.71
		c0.493-2.746-0.158-5.951-1.277-8.574c-0.326-0.765-3.794-0.269-5.817-0.214c-4.467,0.119-8.933,0.467-13.393,0.386
		c-0.991-0.019-1.956-1.425-2.933-2.192c0.676-0.542,1.269-1.329,2.038-1.588c9.35-3.143,18.659-6.447,28.152-9.087
		c1.841-0.512,5.879,1.146,6.404,2.666c1.866,5.401,0.864,8.99,10.664,7.693c14.118-1.87,29.129,2.767,43.72,4.896
		c2.712,0.396,5.238,2.061,7.851,3.14c0.777-3.276,3.195-7.326,2.073-9.708c-9.162-19.447-18.464-38.873-28.924-57.638
		c-3.169-5.686-11.089-8.539-15.118-13.963c-12.952-17.438-29.004-16.879-48.379-12.99c-31.836,6.39-64.221,12.688-96.505,13.442
		c-29.984,0.699-59.778-2.693-89.023,7.405c-5.491,1.897-13.995-3.693-18.801-1.264c-19.083,9.649-37.251,21.107-55.758,31.897
		c-1.763,1.028-3.518,2.072-5.276,3.108c-0.468-1.94-1.194-3.86-1.346-5.824c-0.255-3.305-0.145-6.637-0.188-9.957
		c-2.917,2.39-7.14,4.186-8.543,7.265c-9.767,21.434-18.97,43.125-28.311,64.752c-7.084,16.401-13.962,32.895-21.28,49.19
		c-1.445,3.219-4.308,5.884-6.817,8.519c-2.938,3.085-6.236,5.823-9.315,8.777c-1.786,1.714-3.44,3.563-5.228,5.275
		c-0.026,0.024-1.117-0.878-1.52-1.476c-0.6-0.892-1.03-1.897-1.532-2.854c-0.836,2.796-2.123,5.556-2.348,8.4
		c-0.15,1.882,1.223,3.884,1.914,5.833c0.568-0.604,1.069-1.294,1.715-1.797c2.344-1.821,4.737-3.581,7.111-5.364
		c0.682,2.954,1.654,5.878,1.967,8.871c0.327,3.125-0.055,6.318,0.054,9.477c0.022,0.633,1.008,1.841,1.299,1.77
		c11.003-2.727,16.604,3.089,15.847,15.14c-1.103,17.55-2.413,35.191-1.728,52.72c0.766,19.587,4.001,39.066,5.382,58.647
		c0.329,4.656-4.503,10.061-3.436,14.214c4.121,16.02,9.74,31.651,14.551,47.504c0.385,1.268-1.141,3.115-1.779,4.693
		c-8.839-5.001-22.989-8.224-25.385-15.382c-4.636-13.849-7.791-30.82,7.14-43.126c2.032-1.675,4.184-5.287,3.714-7.444
		c-0.794-3.651-3.525-6.928-5.658-10.222c-1.273-1.966-2.811-3.819-4.497-5.445c-2.427-2.342-5.098-4.432-7.665-6.629
		c-1.468,2.49-4.309,5.048-4.188,7.458c1.048,20.929,2.66,41.83,3.99,62.746c0.104,1.636-0.65,3.325-1.005,4.989
		c-1.1-0.593-2.564-0.911-3.248-1.818c-17.054-22.623-21.248-48.751-19.173-76.032c0.197-2.584,8.931-5.088,14.016-6.498
		c2.629-0.729,5.948,1.026,8.955,1.659c-0.229-4.714,1.47-11.381-1.002-13.825c-15.643-15.456-18.979-32.447-10.759-52.758
		c2.66-6.571,2.448-14.321,3.382-21.554c0.111-0.865-0.837-1.867-1.294-2.807c-0.338,1.011-0.813,1.997-0.993,3.035
		c-1.342,7.714-2.344,15.502-4.06,23.13c-0.745,3.312-2.919,6.302-4.444,9.438c-0.064-3.768-0.671-7.621-0.095-11.288
		c2.103-13.391,5.077-26.66,6.736-40.098c0.753-6.106-0.803-12.498-1.312-18.761c-0.8,5.854-1.349,11.756-2.484,17.543
		c-0.839,4.28-2.435,8.413-3.746,12.596c-0.024,0.078-0.693-0.045-1.061-0.074c0.685-3.614,1.377-7.227,2.044-10.845
		c0.09-0.484,0.116-0.998,0.071-1.488c-1.803-19.701-3.89-38.758,3.833-58.581c8.736-22.428,11.67-47.077,19.921-69.743
		c7.918-21.751,19.346-42.232,29.384-63.198c2.287-4.777,5.4-9.156,7.756-13.905c1.646-3.319,2.65-6.956,3.941-10.451
		c-3.261,2.345-7.573,4.01-9.605,7.15c-10.653,16.457-20.717,33.295-31.049,49.961c-0.403,0.65-1.451,0.902-2.198,1.34
		c-0.449-1.045-0.897-2.09-1.347-3.134c-0.548,1.691-1.049,3.399-1.651,5.072c-2.108,5.856-4.065,11.778-6.482,17.507
		c-0.823,1.951-2.835,3.401-4.304,5.081c0.769-2.083,1.553-4.161,2.3-6.252c0.362-1.012,0.655-2.049,0.979-3.074
		c-0.647,0.334-1.523,0.501-1.907,1.027c-4.988,6.843-9.924,13.724-14.827,20.627c-1.035,1.458-1.884,3.047-2.819,4.574
		c-1.252-1.449-3.049-2.726-3.585-4.403c-0.438-1.37,0.171-3.566,1.101-4.809c13.215-17.641,26.738-35.056,39.685-52.89
		c1.825-2.514-0.319-8.244,1.651-10.251c5.092-5.188,11.828-8.732,17.142-13.745c2.304-2.173,1.79-7.472,4.15-9.424
		c19.215-15.888,38.829-31.292,58.25-46.934c1.912-1.54,3.822-3.449,4.856-5.607c0.955-1.995,0.732-4.554,1.027-6.864
		c-3.858,0.078-8.889-1.393-11.379,0.492c-13.189,9.984-25.709,20.852-38.565,31.284c-1.159,0.94-3.058,0.968-4.613,1.419
		c0.891-1.745,1.386-3.921,2.739-5.161c7.023-6.439,13.83-13.248,21.544-18.766c9.265-6.628,19.335-12.139,29.117-18.031
		c6.233-3.756,12.657-7.2,18.832-11.046c2.369-1.476,4.109-4.887,6.454-5.227c2.568-0.371,5.521,1.74,8.266,2.871
		c0.796,0.327,1.449,1.003,2.168,1.52c0.328-0.684,1.109-1.772,0.916-1.989c-2.564-2.865,5.839-16.783-8.154-8.24
		c-0.401,0.245-1.45-0.071-1.89-0.467c-2.977-2.677-5.829-5.491-8.817-8.152c-0.771-0.688-1.887-0.991-2.844-1.471
		c0.55-0.554,1-1.382,1.663-1.62c6.908-2.482,13.747-5.251,20.814-7.17c6.291-1.708,12.846-2.446,19.284-3.613
		c-5.924,3.479-11.858,6.937-17.759,10.454c-0.932,0.556-1.739,1.345-2.495,2.131c-0.068,0.072,0.711,1.369,1.027,1.34
		c7.294-0.67,14.579-1.445,21.866-2.201c-0.361-1.143-0.545-2.392-1.144-3.392c-0.431-0.72-1.416-1.106-2.153-1.642
		c0.922-0.289,1.836-0.607,2.768-0.86c6.805-1.851,13.618-3.67,20.41-5.563c0.52-0.146,1.241-0.78,1.253-1.204
		c0.013-0.464-0.604-1.085-1.098-1.396c-1.213-0.765-2.514-1.392-3.779-2.073c1.787-0.477,3.548-1.141,5.365-1.389
		c3.394-0.465,6.82-0.688,10.233-1.012c-2.041-1.125-4.082-2.251-6.123-3.376c0.549-0.615,0.995-1.61,1.661-1.79
		C366.402,8.812,381.203,4.914,396,1c20.667,0,41.333,0,62,0c5.286,3.185,10.471,6.563,15.921,9.438
		c1.673,0.882,4.073,0.385,6.14,0.519c-1.646-1.352-3.121-3.038-4.974-3.985C470.822,4.79,466.374,2.968,462,1z M357.488,747.862
		c1.15,17.056,6.392,23.417,20.074,27.329c1.881,0.538,3.59,2.303,5.407,2.348c13.273,0.32,26.755,1.831,39.779,0.071
		c14.539-1.965,27.331-17.069,43.821-5.023c1.884,1.377,6.616,1.015,8.698-0.441c6.56-4.589,12.641-9.911,18.614-15.275
		c5.977-5.368,11.491-11.248,17.445-16.644c1.755-1.589,4.313-2.291,6.503-3.4c-3.189-1.463-6.248-3.593-9.596-4.253
		c-7.546-1.488-15.328-1.814-22.842-3.417c-8.952-1.909-17.652-6.156-26.596-6.584c-7.447-0.355-14.992,4.131-22.665,5.064
		c-11.599,1.412-23.341,1.76-35.036,2.191c-2.832,0.104-8.084-0.938-8.209-1.951c-1.109-8.965-1.475-18.041-1.547-27.089
		c-0.007-0.949,3.366-2.855,5.041-2.72c5.989,0.486,11.901,1.859,17.886,2.484c2.599,0.271,5.303-0.46,7.959-0.735
		c-0.688-2.899-1.075-5.914-2.121-8.679c-3.291-8.703-6.155-17.307,6.658-20.455c9.731-2.391,20.102-2.911,29.288-6.541
		c6.082-2.402,10.573-8.832,15.777-13.459c-3.14,0.16-6.289,0.562-9.418,0.439c-18.058-0.707-36.148-2.594-54.148-1.929
		c-10.764,0.398-21.374,6.753-32.068,6.8c-14.738,0.063-17.709,13.236-17.063,19.485c1.05,10.147,9.561,19.472,14.662,29.278
		c1.819,3.498,4.228,10.596,4.101,10.648C361.947,722.095,359.631,736.35,357.488,747.862z M631.731,361.022
		c-0.414,0.008-0.828,0.017-1.242,0.024c0.119,2.476-0.17,5.054,0.423,7.41c5.019,19.949,9.931,39.935,15.572,59.711
		c1.035,3.631,5.99,9.37,7.813,8.908c4.379-1.108,11.361-5.316,11.364-8.28c0.035-33.273-4.754-65.478-26.655-92.524
		c-1.306-1.612-3.514-2.495-5.302-3.717c-0.657,1.968-1.822,3.92-1.882,5.906C631.598,345.976,631.731,353.501,631.731,361.022z
		 M598.692,489.997c0.114,0.436,0.229,0.872,0.344,1.308c1.663-0.633,3.326-1.265,4.989-1.896c-1.945-1.831-3.73-3.879-5.864-5.453
		c-6.448-4.756-21.215-1.639-16.111-17.216c-2.196-0.369-4.635-1.539-6.543-0.959c-5.715,1.735-11.351,3.885-16.754,6.433
		c-2.386,1.125-5.652,3.4-5.93,5.496c-1.874,14.165,9.004,21.555,23.056,16.875C583.184,492.152,591.069,491.47,598.692,489.997z
		 M206.116,211.149c8.028-6.982,16.859-12.969,23.417-20.848c6.486-7.791,10.693-17.482,15.847-26.372
		c0.523-0.902,0.683-2.017,1.011-3.032c-1.131,0.47-2.666,0.619-3.333,1.458c-7.127,8.961-13.994,18.131-21.189,27.036
		c-4.882,6.043-10.223,11.713-15.223,17.665c-0.747,0.89-0.799,2.399-1.035,3.648C205.574,210.914,206.247,211.256,206.116,211.149z
		 M186.948,222.407c1.978,5.776,2.262,6.606,2.546,7.437c0.441-0.838,0.991-1.637,1.308-2.52c3.638-10.117,7.08-20.309,10.91-30.353
		c2.506-6.575,5.587-12.93,8.336-19.414c0.345-0.814,0.231-1.822,0.33-2.74c-0.861,0.571-2.153,0.943-2.521,1.742
		C200.33,192.899,192.909,209.287,186.948,222.407z M247.417,168.918c-0.805,1.127-1.539,2.188-2.306,3.226
		c-6.883,9.3-13.79,18.583-20.64,27.907c-0.969,1.319-1.67,2.836-2.496,4.261c1.646-0.617,3.951-0.745,4.836-1.931
		c7.234-9.698,14.229-19.576,21.21-29.46c0.601-0.851,0.638-2.13,0.796-3.229C248.84,169.535,248.063,169.264,247.417,168.918z
		 M381.516,15.377c-1.41,0.214-4.796,0.728-8.181,1.241c0.464,0.333,0.886,0.857,1.397,0.97c7.286,1.593,14.554,3.309,21.904,4.521
		c1.366,0.225,3.094-1.599,4.577-2.591c0.088-0.059-0.446-1.637-0.81-1.689C394.801,17.018,389.178,16.342,381.516,15.377z"/>
	<path fill-rule="evenodd" clip-rule="evenodd" fill="none" d="M396,1c-14.797,3.914-29.598,7.812-44.375,11.798
		c-0.666,0.18-1.112,1.175-1.661,1.79c2.041,1.125,4.082,2.251,6.123,3.376c-3.413,0.323-6.84,0.547-10.233,1.012
		c-1.817,0.248-3.578,0.912-5.365,1.389c1.266,0.682,2.566,1.309,3.779,2.073c0.494,0.312,1.11,0.933,1.098,1.396
		c-0.012,0.424-0.733,1.059-1.253,1.204c-6.792,1.894-13.605,3.713-20.41,5.563c-0.932,0.253-1.846,0.571-2.768,0.86
		c0.737,0.535,1.723,0.922,2.153,1.642c0.599,1,0.782,2.249,1.144,3.392c-7.287,0.756-14.572,1.531-21.866,2.201
		c-0.316,0.029-1.096-1.268-1.027-1.34c0.756-0.786,1.563-1.575,2.495-2.131c5.9-3.518,11.835-6.976,17.759-10.454
		c-6.438,1.167-12.993,1.905-19.284,3.613c-7.067,1.919-13.906,4.688-20.814,7.17c-0.663,0.238-1.113,1.066-1.663,1.62
		c0.957,0.479,2.072,0.782,2.844,1.471c2.988,2.661,5.841,5.476,8.817,8.152c0.439,0.396,1.488,0.712,1.89,0.467
		c13.993-8.543,5.59,5.375,8.154,8.24c0.193,0.217-0.588,1.306-0.916,1.989c-0.719-0.517-1.372-1.192-2.168-1.52
		c-2.744-1.131-5.697-3.242-8.266-2.871c-2.345,0.34-4.085,3.751-6.454,5.227c-6.175,3.846-12.599,7.29-18.832,11.046
		c-9.782,5.893-19.853,11.403-29.117,18.031c-7.714,5.518-14.521,12.326-21.544,18.766c-1.353,1.24-1.848,3.416-2.739,5.161
		c1.555-0.451,3.455-0.479,4.613-1.419c12.856-10.433,25.375-21.3,38.565-31.284c2.49-1.885,7.521-0.414,11.379-0.492
		c-0.295,2.311-0.072,4.869-1.027,6.864c-1.034,2.158-2.944,4.067-4.856,5.607c-19.421,15.642-39.035,31.046-58.25,46.934
		c-2.36,1.952-1.846,7.251-4.15,9.424c-5.314,5.013-12.05,8.558-17.142,13.745c-1.97,2.007,0.174,7.737-1.651,10.251
		c-12.947,17.834-26.469,35.249-39.685,52.89c-0.93,1.242-1.539,3.438-1.101,4.809c0.536,1.678,2.333,2.954,3.585,4.403
		c0.935-1.527,1.785-3.116,2.819-4.574c4.903-6.903,9.839-13.784,14.827-20.627c0.383-0.526,1.259-0.693,1.907-1.027
		c-0.324,1.025-0.618,2.063-0.979,3.074c-0.747,2.091-1.531,4.169-2.3,6.252c1.469-1.68,3.48-3.13,4.304-5.081
		c2.417-5.729,4.375-11.65,6.482-17.507c0.602-1.673,1.104-3.381,1.651-5.072c0.449,1.044,0.898,2.089,1.347,3.134
		c0.748-0.438,1.795-0.689,2.198-1.34c10.332-16.666,20.396-33.504,31.049-49.961c2.033-3.141,6.345-4.806,9.605-7.15
		c-1.291,3.495-2.295,7.132-3.941,10.451c-2.356,4.749-5.469,9.128-7.756,13.905c-10.038,20.966-21.466,41.447-29.384,63.198
		c-8.25,22.666-11.185,47.315-19.921,69.743c-7.722,19.823-5.635,38.88-3.833,58.581c0.045,0.49,0.019,1.004-0.071,1.488
		c-0.667,3.618-1.36,7.23-2.044,10.845c0.368,0.029,1.036,0.152,1.061,0.074c1.311-4.183,2.907-8.315,3.746-12.596
		c1.135-5.787,1.684-11.689,2.484-17.543c0.509,6.263,2.065,12.654,1.312,18.761c-1.659,13.438-4.633,26.707-6.736,40.098
		c-0.576,3.667,0.031,7.521,0.095,11.288c1.525-3.136,3.7-6.126,4.444-9.438c1.715-7.628,2.717-15.416,4.06-23.13
		c0.18-1.038,0.654-2.024,0.993-3.035c0.457,0.939,1.406,1.941,1.294,2.807c-0.934,7.232-0.722,14.982-3.382,21.554
		c-8.22,20.311-4.884,37.302,10.759,52.758c2.473,2.444,0.773,9.111,1.002,13.825c-3.007-0.633-6.326-2.389-8.955-1.659
		c-5.084,1.41-13.819,3.914-14.016,6.498c-2.075,27.281,2.119,53.409,19.173,76.032c0.684,0.907,2.147,1.226,3.248,1.818
		c0.355-1.664,1.109-3.354,1.005-4.989c-1.33-20.916-2.941-41.817-3.99-62.746c-0.121-2.41,2.72-4.968,4.188-7.458
		c2.567,2.197,5.238,4.287,7.665,6.629c1.686,1.626,3.224,3.479,4.497,5.445c2.133,3.294,4.864,6.57,5.658,10.222
		c0.469,2.157-1.683,5.77-3.714,7.444c-14.931,12.306-11.776,29.277-7.14,43.126c2.396,7.158,16.546,10.381,25.385,15.382
		c0.638-1.578,2.164-3.426,1.779-4.693c-4.811-15.853-10.43-31.484-14.551-47.504c-1.068-4.153,3.764-9.558,3.436-14.214
		c-1.38-19.581-4.616-39.061-5.382-58.647c-0.685-17.528,0.625-35.17,1.728-52.72c0.757-12.051-4.844-17.866-15.847-15.14
		c-0.291,0.071-1.277-1.137-1.299-1.77c-0.109-3.158,0.273-6.352-0.054-9.477c-0.313-2.993-1.285-5.917-1.967-8.871
		c-2.375,1.783-4.767,3.543-7.111,5.364c-0.646,0.503-1.147,1.192-1.715,1.797c-0.691-1.949-2.064-3.951-1.914-5.833
		c0.226-2.845,1.512-5.604,2.348-8.4c0.502,0.957,0.932,1.963,1.532,2.854c0.403,0.598,1.494,1.5,1.52,1.476
		c1.787-1.712,3.442-3.562,5.228-5.275c3.079-2.954,6.377-5.692,9.315-8.777c2.509-2.635,5.372-5.3,6.817-8.519
		c7.317-16.296,14.195-32.789,21.28-49.19c9.341-21.627,18.544-43.318,28.311-64.752c1.403-3.079,5.625-4.875,8.543-7.265
		c0.043,3.32-0.067,6.652,0.188,9.957c0.151,1.964,0.878,3.884,1.346,5.824c1.759-1.036,3.514-2.08,5.276-3.108
		c18.507-10.79,36.675-22.248,55.758-31.897c4.806-2.43,13.31,3.161,18.801,1.264c29.245-10.099,59.039-6.706,89.023-7.405
		c32.284-0.754,64.669-7.053,96.505-13.442c19.375-3.889,35.427-4.448,48.379,12.99c4.029,5.424,11.949,8.277,15.118,13.963
		c10.46,18.765,19.762,38.19,28.924,57.638c1.122,2.382-1.296,6.432-2.073,9.708c-2.612-1.079-5.139-2.744-7.851-3.14
		c-14.591-2.129-29.602-6.766-43.72-4.896c-9.8,1.297-8.798-2.292-10.664-7.693c-0.525-1.521-4.563-3.178-6.404-2.666
		c-9.493,2.64-18.803,5.944-28.152,9.087c-0.77,0.259-1.362,1.046-2.038,1.588c0.977,0.768,1.941,2.174,2.933,2.192
		c4.46,0.081,8.926-0.267,13.393-0.386c2.023-0.055,5.491-0.551,5.817,0.214c1.119,2.623,1.771,5.828,1.277,8.574
		c-0.21,1.169-4.037,1.355-5.59,2.71c-1.512,1.319-3.592,4.304-3.063,5.281c4.475,8.274,9.54,16.227,14.271,24.367
		c0.541,0.932,0.117,2.425,0.142,3.657c-1.01-0.367-2.142-1.235-3.011-1.024c-8.396,2.037-16.747,4.257-25.11,6.424
		c0.712,2.157,0.936,4.719,2.284,6.35c1.182,1.43,3.627,1.814,5.515,2.66c-2.982,0.52-6.142,1.917-8.905,1.358
		c-4.377-0.886-10.317-5.717-12.401-4.271c-9.646,6.688-18.04,15.148-27.178,22.613c-6.162,5.034-12.301,10.569-19.386,13.876
		c-7.724,3.604-16.824,4.159-24.79,7.37c-11.089,4.469-23.79,7.968-32.017,15.837c-14.084,13.473-30.733,8.9-46.426,11.587
		c-15.973,2.734-31.891,5.813-47.745,9.156c-1.924,0.406-3.091,3.694-5.014,5.087c-1.067,0.772-2.994,0.615-4.498,0.48
		c-5.354-0.483-10.697-1.507-16.032-1.434c-1.16,0.016-3.742,4.637-3.157,5.583c3.242,5.242-11.898,9.099-0.941,14.467
		c0.422,0.207,0.229,1.672,0.321,2.55c-2.747,0.189-5.527,0.179-8.231,0.625c-2.589,0.426-5.1,1.326-7.646,2.019
		c0.882,1.64,2.936,3.903,2.45,4.813c-2.458,4.61-5.826,8.729-8.387,13.294c-2.228,3.97-4.256,8.191-5.353,12.558
		c-0.275,1.092,3.398,3.139,5.207,4.801c2.917,2.682,6.882,4.877,8.502,8.204c8.853,18.178,16.626-2.452,25.129-0.606
		c3.258,0.707,7.148-2.081,10.848-2.708c7.979-1.353,16.007-2.469,24.049-3.379c2.026-0.229,4.183,0.686,6.279,1.075
		c-1.539,1.683-3.299,3.218-4.553,5.091c-1.229,1.837-1.785,4.113-2.929,6.021c-1.117,1.865-2.638,3.485-3.92,5.258
		c-2.161,2.988-4.274,6.012-6.407,9.02c4.402,2.567,8.713,7.183,13.221,7.383c43.018,1.907,66.387-22.495,77.663-60.5
		c2.803-9.447,12.56-20.715,21.518-23.539c13.35-4.207,26.113,11.157,28.892,25.522c4.154,21.482,11.13,42.412,15.489,63.865
		c0.994,4.893-3.76,10.977-5.958,16.477c-0.484,1.214-1.883,2.24-1.961,3.412c-2.052,30.646-25.1,37.925-49.044,44.283
		c-6.869,1.824-13.749,3.661-20.466,5.956c-1.391,0.476-2.08,3.005-3.093,4.588c1.657,0.825,3.32,1.637,4.971,2.477
		c13.857,7.053,27.747,14.045,41.499,21.3c1.042,0.55,1.43,2.947,1.553,4.53c0.903,11.563,6.481,10.356,15.404,7.452
		c7.833-2.55,16.828-1.659,25.318-1.793c0.618-0.01,2.245,5.678,1.812,5.925c-8.545,4.871-16.881,10.866-26.151,13.551
		c-19.421,5.624-39.229,10.222-59.153,13.624c-7.055,1.204-18.26,0.198-21.582-4.261c-4.466-5.993-3.191-16.303-4.264-24.774
		c-0.716-5.655-1.952-11.371-1.687-17c0.641-13.576,2.304-27.108,2.743-40.685c0.053-1.619-6.479-5.457-7.353-4.8
		c-14.603,10.982-28.314,23.205-43.307,33.588c-5.886,4.075-14.71,3.623-21.701,6.456c-9.556,3.872-18.969,8.361-27.808,13.648
		c-5.653,3.382-12.174,7.785-14.652,13.356c-2.865,6.44-4.409,15.809-1.82,21.908c8.616,20.303,17.963,40.571,29.623,59.233
		c13.366,21.392,31.399,39.966,43.886,61.779c11.8,20.616,18.365,44.161,28.569,65.787c4.882,10.345,15.832,18.424,18.694,28.978
		c3.764,13.876,2.285,29.178,2.96,43.871c0.028,0.621-0.956,1.29-1.469,1.936c-0.685-1.321-1.598-2.574-2.018-3.975
		c-4.921-16.399-9.665-32.854-14.734-49.206c-0.844-2.722-3.021-5.03-4.582-7.529c-1.664,2.659-4.68,5.271-4.774,7.984
		c-0.614,17.706-0.694,35.435-0.709,53.156c-0.004,3.963,0.946,7.928,1.457,11.892c-110,0-220,0.014-330-0.166
		c-1.336-0.002-3.835-2.5-3.835-3.834c-0.17-296.333-0.17-592.667,0-889c0-1.334,2.5-3.833,3.835-3.834
		C135.333,0.988,265.667,1,396,1z M209.182,591.615c-0.259-0.721-0.519-1.44-0.778-2.161c-7.81,2.667-15.62,5.333-23.43,7.999
		c1.535,2.798,2.633,7.601,4.679,8.046c8.813,1.918,17.886,2.771,26.906,3.497c2.017,0.163,4.471-1.415,6.222-2.817
		c1.367-1.095,3.117-3.569,2.707-4.727c-2.82-7.969-5.967-15.841-9.456-23.542c-1.066-2.354-3.533-4.074-5.359-6.084
		c-0.464,0.614-1.438,1.378-1.31,1.819c0.876,3.009,1.763,6.055,3.092,8.878c1,2.125,2.665,3.936,4.034,5.887
		C214.053,589.479,211.617,590.547,209.182,591.615z M226.117,83.811c-1.059,0.47-1.438,0.528-1.651,0.748
		c-13.271,13.722-26.608,27.382-39.611,41.354c-0.881,0.947,0.711,4.265,1.37,6.414c0.042,0.136,2.438,0.082,2.955-0.537
		c12.563-15.038,25.032-30.154,37.43-45.328C226.953,86.042,226.328,84.832,226.117,83.811z M126.571,264.055
		c1.108,1.801,2.079,3.8,3.49,5.413c0.409,0.469,2.894,0.116,3.048-0.333c3.083-8.995,6.01-18.045,8.783-27.141
		c0.183-0.599-1.114-1.647-1.723-2.487C135.761,247.466,131.352,255.425,126.571,264.055z"/>
	<path fill-rule="evenodd" clip-rule="evenodd" fill="none" d="M899,825c-21.301,1.281-28.542-19.045-42.808-28.515
		c-24.503-16.268-48.243-34.052-70.377-53.403c-17.176-15.017-36.072-12.357-54.802-9.988
		c-16.408,2.075-15.618-11.481-18.775-18.836c-13.369-31.139-14.562-31.806-49.009-34.535c-4.394-0.348-11.483-15.951-10.711-23.84
		c3.668-37.459,9.533-74.708,15.106-111.958c0.229-1.527,5.299-2.609,8.248-3.4c11.121-2.985,24.044-3.203,32.991-9.3
		c10.097-6.879,11.21-19.301,5.151-31.668c-1.369-2.795,4.573-8.429,4.941-12.937c2.92-35.738,6.115-71.499,7.071-107.31
		c0.162-6.09-8.866-14.481-15.632-18.228c-10.713-5.934-13.185-17.14-9.998-28.808c3.75-13.73,3.826-29.087,2.378-43.424
		c-1.229-12.161-6.937-23.191,2.753-35.118c2.899-3.568,0.156-13.157-2.149-19.163c-3.072-8.001-8.41-15.11-12.4-22.796
		c-1.04-2.005-1.325-4.921-0.682-7.03c0.266-0.873,3.905-0.62,5.964-1.085c1.042-0.236,2.889-1.194,2.834-1.381
		c-2.45-8.443-3.692-17.62-7.934-25.089c-12.108-21.321-25.057-42.203-38.587-62.653c-3.134-4.735-10.604-6.412-14.691-10.792
		c-1.854-1.987,1.23-8.783-0.626-10.533c-5.135-4.844-11.697-8.17-17.68-12.12c-1.187-0.783-2.301-1.676-3.448-2.519
		c0.465-0.588,0.86-1.593,1.408-1.685c1.503-0.253,3.07-0.121,4.612-0.141c-1.756-1.24-3.708-2.277-5.233-3.755
		c-6.511-6.309-12.43-13.339-19.506-18.911c-4.095-3.226-10.127-3.87-15.026-6.221c-10.035-4.813-19.916-9.955-29.817-15.046
		c-3.289-1.69-6.409-3.709-9.673-5.452c-8.947-4.778-17.932-9.489-26.9-14.228c-0.463,2.839-0.813,5.702-1.42,8.51
		c-0.613,2.838-1.48,5.621-2.236,8.428c-0.685-2.533-0.921-5.315-2.159-7.541c-1.84-3.306-3.744-7.783-6.749-9.021
		C491.863,8.749,479.848,5.078,468,1c142.11,0,284.22-0.016,426.33,0.2c1.559,0.002,4.476,3.017,4.478,4.626
		C899.008,278.885,899,551.942,899,825z"/>
	<path fill-rule="evenodd" clip-rule="evenodd" fill="none" d="M462,1c4.374,1.968,8.822,3.79,13.087,5.972
		c1.853,0.947,3.327,2.634,4.974,3.985c-2.066-0.134-4.467,0.363-6.14-0.519C468.471,7.563,463.286,4.185,458,1
		C459.333,1,460.667,1,462,1z"/>
	<path fill-rule="evenodd" clip-rule="evenodd" fill="none" d="M357.488,747.862c2.143-11.513,4.459-25.768,20.406-32.456
		c0.127-0.053-2.281-7.15-4.101-10.648c-5.102-9.807-13.612-19.131-14.662-29.278c-0.646-6.249,2.324-19.422,17.063-19.485
		c10.694-0.047,21.305-6.401,32.068-6.8c18-0.665,36.091,1.222,54.148,1.929c3.129,0.122,6.278-0.279,9.418-0.439
		c-5.204,4.627-9.695,11.057-15.777,13.459c-9.187,3.63-19.557,4.15-29.288,6.541c-12.813,3.148-9.949,11.752-6.658,20.455
		c1.046,2.765,1.433,5.779,2.121,8.679c-2.656,0.275-5.36,1.007-7.959,0.735c-5.984-0.625-11.896-1.998-17.886-2.484
		c-1.675-0.136-5.048,1.771-5.041,2.72c0.072,9.048,0.438,18.124,1.547,27.089c0.125,1.013,5.377,2.056,8.209,1.951
		c11.695-0.432,23.438-0.779,35.036-2.191c7.673-0.934,15.218-5.42,22.665-5.064c8.943,0.428,17.644,4.675,26.596,6.584
		c7.514,1.603,15.296,1.929,22.842,3.417c3.348,0.66,6.406,2.79,9.596,4.253c-2.189,1.109-4.748,1.812-6.503,3.4
		c-5.954,5.396-11.469,11.275-17.445,16.644c-5.974,5.364-12.055,10.687-18.614,15.275c-2.082,1.456-6.814,1.818-8.698,0.441
		c-16.49-12.046-29.282,3.059-43.821,5.023c-13.024,1.76-26.506,0.249-39.779-0.071c-1.817-0.045-3.526-1.81-5.407-2.348
		C363.88,771.279,358.639,764.918,357.488,747.862z"/>
	<path fill-rule="evenodd" clip-rule="evenodd" fill="none" d="M631.731,361.022c0-7.521-0.134-15.047,0.091-22.562
		c0.06-1.986,1.225-3.938,1.882-5.906c1.788,1.222,3.996,2.104,5.302,3.717c21.901,27.047,26.69,59.251,26.655,92.524
		c-0.003,2.964-6.985,7.172-11.364,8.28c-1.822,0.462-6.777-5.277-7.813-8.908c-5.642-19.776-10.554-39.762-15.572-59.711
		c-0.593-2.356-0.304-4.935-0.423-7.41C630.903,361.039,631.317,361.03,631.731,361.022z"/>
	<path fill-rule="evenodd" clip-rule="evenodd" fill="none" d="M598.692,489.997c-7.623,1.473-15.509,2.155-22.813,4.587
		c-14.052,4.68-24.93-2.71-23.056-16.875c0.277-2.096,3.544-4.371,5.93-5.496c5.403-2.548,11.039-4.697,16.754-6.433
		c1.908-0.58,4.347,0.59,6.543,0.959c-5.104,15.577,9.663,12.46,16.111,17.216c2.134,1.574,3.919,3.622,5.864,5.453
		c-1.663,0.632-3.326,1.264-4.989,1.896C598.922,490.869,598.807,490.433,598.692,489.997z"/>
	<path fill-rule="evenodd" clip-rule="evenodd" fill="none" d="M206.116,211.149c0.131,0.106-0.542-0.235-0.503-0.444
		c0.235-1.249,0.288-2.759,1.035-3.648c5-5.952,10.341-11.622,15.223-17.665c7.195-8.905,14.062-18.075,21.189-27.036
		c0.667-0.839,2.201-0.988,3.333-1.458c-0.328,1.016-0.488,2.13-1.011,3.032c-5.154,8.89-9.361,18.581-15.847,26.372
		C222.975,198.181,214.144,204.167,206.116,211.149z"/>
	<path fill-rule="evenodd" clip-rule="evenodd" fill="none" d="M186.948,222.407c5.961-13.12,13.382-29.508,20.908-45.848
		c0.368-0.799,1.66-1.171,2.521-1.742c-0.099,0.918,0.015,1.926-0.33,2.74c-2.749,6.484-5.83,12.839-8.336,19.414
		c-3.83,10.044-7.271,20.235-10.91,30.353c-0.317,0.883-0.867,1.682-1.308,2.52C189.209,229.014,188.925,228.184,186.948,222.407z"
		/>
	<path fill-rule="evenodd" clip-rule="evenodd" fill="none" d="M247.417,168.918c0.646,0.346,1.423,0.617,1.4,0.773
		c-0.158,1.1-0.195,2.379-0.796,3.229c-6.981,9.884-13.976,19.762-21.21,29.46c-0.885,1.186-3.189,1.313-4.836,1.931
		c0.826-1.425,1.527-2.941,2.496-4.261c6.85-9.324,13.756-18.607,20.64-27.907C245.878,171.106,246.612,170.045,247.417,168.918z"/>
	<path fill-rule="evenodd" clip-rule="evenodd" fill="none" d="M381.516,15.377c7.662,0.965,13.285,1.641,18.889,2.452
		c0.363,0.053,0.897,1.631,0.81,1.689c-1.483,0.992-3.211,2.815-4.577,2.591c-7.351-1.213-14.618-2.929-21.904-4.521
		c-0.512-0.112-0.934-0.637-1.397-0.97C376.72,16.104,380.105,15.591,381.516,15.377z"/>
	<path fill-rule="evenodd" clip-rule="evenodd" d="M209.182,591.615c2.436-1.068,4.872-2.137,7.307-3.205
		c-1.369-1.951-3.034-3.762-4.034-5.887c-1.329-2.823-2.215-5.869-3.092-8.878c-0.129-0.441,0.846-1.205,1.31-1.819
		c1.826,2.01,4.292,3.73,5.359,6.084c3.489,7.701,6.636,15.573,9.456,23.542c0.41,1.157-1.34,3.632-2.707,4.727
		c-1.751,1.402-4.205,2.98-6.222,2.817c-9.02-0.726-18.093-1.579-26.906-3.497c-2.046-0.445-3.145-5.248-4.679-8.046
		c7.81-2.666,15.62-5.332,23.43-7.999C208.663,590.175,208.922,590.895,209.182,591.615z"/>
	<path fill-rule="evenodd" clip-rule="evenodd" d="M226.117,83.811c0.211,1.021,0.836,2.231,0.493,2.651
		c-12.398,15.174-24.867,30.29-37.43,45.328c-0.518,0.619-2.914,0.673-2.955,0.537c-0.659-2.149-2.251-5.467-1.37-6.414
		c13.003-13.973,26.34-27.633,39.611-41.354C224.679,84.339,225.058,84.28,226.117,83.811z"/>
	<path fill-rule="evenodd" clip-rule="evenodd" d="M126.571,264.055c4.781-8.63,9.189-16.589,13.598-24.548
		c0.608,0.84,1.905,1.889,1.723,2.487c-2.773,9.096-5.7,18.146-8.783,27.141c-0.154,0.449-2.639,0.802-3.048,0.333
		C128.65,267.854,127.679,265.855,126.571,264.055z"/>
</g>
</svg>
